<?xml version="1.0" encoding="utf-8"?>
<!-- Generator: Adobe Illustrator 26.3.1, SVG Export Plug-In . SVG Version: 6.00 Build 0)  -->
<svg version="1.1" id="Layer_1" xmlns="http://www.w3.org/2000/svg" xmlns:xlink="http://www.w3.org/1999/xlink" x="0px" y="0px"
	 viewBox="0 0 838.3 838.7" style="enable-background:new 0 0 838.3 838.7;" xml:space="preserve">
<style type="text/css">
	.head {
		fill: #ccc;
	}
	.open, .blink {
		fill: #fff;
	}
	.open{
		animation: hideshow 12s ease infinite;
	}
	@keyframes hideshow {
		0% { opacity: 1; }
		49% { opacity: 1; }
		50% { opacity: 0; }
		51% { opacity: 1; }
		89% { opacity: 1; }
		90% { opacity: 0; }
		91% { opacity: 1; }
		92% { opacity: 0; }
		93% { opacity: 1; }
	}
</style>
<!-- Head -->
<path class="head" d="M830.7,321c-7.6-53.1-27.2-101.4-57.9-145.2c-24.4-34.7-53.5-64.6-87.9-89.3c-23.3-16.7-48-30.9-73.9-43
	c-42.8-19.9-87.7-32.3-134.5-38c-31.3-3.8-62.7-4.8-94.2-2.1c-25.5,2.2-50.7,5.9-75.5,12.1c-33,8.2-64.9,19.9-95.2,35.6
	c-31,16-60.4,34.6-86.6,57.9c-36.3,32.1-65.6,69.7-87.1,113.3C19.2,259.9,8.7,299.9,5.2,341.8c-2.4,28.6-0.3,56.9,5,85
	c8.8,46.5,25.9,89.4,53,128.4c25.4,36.7,56.3,67.8,92.3,93.9c3,2.2,4.2,4.4,4.2,8.1c-0.2,32.8-0.4,65.6,0,98.5
	c0.2,19,5.5,36.7,17.4,51.8c16.1,20.2,38,28.5,62.9,29.2c23.2,0.6,46.5,0.1,69.7,0.1c1.6,0,3.2,0,5.2,0c0-2.6,0-4.6,0-6.6
	c0-22,0-44.1,0-66.1c0-3.5,0.3-7,0.8-10.4c3-18.4,25.1-27.4,40.3-16.7c8.3,5.8,11,14.2,11.1,23.7c0.2,23.5,0.1,47.1,0.1,70.6
	c0,1.7,0,3.5,0,5.3c34.8,0,68.9,0,103.6,0c0-2.4,0-4.2,0-6c0-23.5-0.2-47.1,0.1-70.6c0.1-10.5,3.7-19.6,13.8-24.5
	c10.5-5,20.6-3.9,29.6,3.5c7.3,6,8.7,14.6,8.8,23.3c0.2,22.7,0.1,45.4,0.1,68.1c0,1.9,0,3.9,0,5.5c0.9,0.4,1.2,0.7,1.5,0.7
	c28.3-0.3,56.7,0.5,85-1.3c20-1.2,37.2-10.7,50.3-26.5c12.6-15.3,18.1-33.3,18.5-52.9c0.4-17.4,0.1-34.8,0.1-52.2
	c0-15.7,0.2-31.5-0.1-47.2c-0.1-4,1.1-6.2,4.1-8.6c15.1-12.1,30.5-23.8,44.6-36.9c32.1-29.7,57.6-64.7,76.2-104.4
	C831,447.6,839.9,385.6,830.7,321z"/>
	<!-- Open Eyes -->
<path class="open" d="M574.8,513c-58.3,0-103.9-46.6-103.7-104.5c0.2-58.7,46.5-104.1,103.8-103.9c57.7,0.1,102.3,46.1,103.8,104.3
	C677.2,466.7,632.9,513,574.8,513z"/>
<path class="open" d="M263.4,513.3c-57.6-1.3-103.6-45.8-103.9-104.2c-0.2-58.2,45.7-104.6,103.7-104.6
	c57.5,0,103.5,45.7,103.6,104.1C366.9,466.4,321.7,511.7,263.4,513.3z"/>
	<!-- Blinks -->
<path class="blink" d="M263.4,438.4c-55-0.1-99-4-99.2-9c-0.2-5,43.6-9.1,99-9.1c54.9,0,98.9,4,99,9
	C362.2,434.3,319.1,438.2,263.4,438.4z"/>
<path class="blink" d="M574.8,438.3c-55.6,0-99.1-4-98.9-9.1c0.2-5.1,44.3-9,99-9c55,0,97.6,4,99,9
	C672.5,434.3,630.2,438.3,574.8,438.3z"/>
</svg>
