<?xml version="1.0" encoding="utf-8"?>
<!-- Generator: Adobe Illustrator 27.7.0, SVG Export Plug-In . SVG Version: 6.00 Build 0)  -->
<svg version="1.1" id="Layer_1" xmlns="http://www.w3.org/2000/svg" xmlns:xlink="http://www.w3.org/1999/xlink" x="0px" y="0px"
	 viewBox="0 0 167.7 72.4" style="enable-background:new 0 0 167.7 72.4;" xml:space="preserve">
<style type="text/css">
	.st0{fill:#FFFFFF;}
</style>
<g>
	<path class="st0" d="M167.7,37.2c-3.6,2.1-8.1,6.9-9,7.8c-2.6,2.6-5.6,4.9-8.9,6.9c-0.1,0.1-0.3,0.1-0.3,0.1
		c-0.1-0.1-0.3-0.3-0.1-0.4c0.4-1.3,0.8-2.8,1.1-4.5c0.6-2.4,1-4,1.1-4.6c0.1-0.6,0.6-2.5,1.4-5.5c0.8-3,1.6-6.4,2.9-10
		c1.4-4.3,2.9-7,4.3-8.1l0.1-0.1c0.1-0.1,0.3-0.3,0.1-0.4c-0.1-0.1-0.3-0.3-0.4-0.1l-3.3,0.3c-1.5,0.1-2.9,0.4-4.3,0.8
		c-0.5,0.1-1,0.5-1.5,1c-0.4,0.4-0.8,0.8-1,1c0,0,0,0,0,0.1c-0.4,0.5-0.6,1-0.9,1.6c-0.3,0.8-0.5,1.4-0.6,1.8
		c-0.1,0.4-0.4,1.1-0.6,2.3c-0.4,1.1-0.5,2-0.8,2.5c-1.4,4.5-3.4,8.8-5.9,12.7c-2.6,4.1-4.8,6.4-6.5,6.4h-0.1
		c-0.8,0-1.1-0.9-1.3-2.5c-0.3-3.6,0.6-8.1,2.5-13.5s3.8-9.1,5.8-11.4c0.4-0.5,0.5-0.8,0.5-1.1c0,0,0,0,0-0.1c0-0.4-0.4-0.6-0.6-0.5
		c-2.9,0.1-5,0.6-6.6,1.6c-1.6,0.9-3.1,2.6-4.4,5.4c-1.1,2.3-2.1,5.3-3,8.9c0,0,0,0,0,0.1c-0.1,0.3-0.4,0.6-0.5,1.1
		c-0.6,1.3-1.4,2.9-2.3,4.5c-0.8,1.5-1.5,2.9-2.4,4.3c-0.8,1.3-1.8,2.4-2.8,3.4c-1.4,1.3-2.1,1.6-2.5,1.6h-0.1c-0.5,0-1-0.1-1.1-1.6
		c-0.1-2.1,0.8-6.5,2.6-12.9c0.9-3,1.4-5,1.6-6c0.3-1,0.3-2,0.3-3c-0.1-3.1-1.9-4.6-5-4.5c-4,0.3-7.8,2.3-11.5,6.1
		c-0.1,0.1-0.1,0.1-0.3,0.1s-0.3-0.1-0.3-0.4c0.1-0.8,0.3-1.5,0.3-2.1c0-0.8-0.4-1.4-1-1.8c-0.6-0.4-1.9-0.5-3.8-0.4l-3.8,0
		c-0.1,0-0.1,0-0.1,0.1c-0.1,0.1-0.1,0.3-0.1,0.4c0.1,0.4,0.3,0.8,0.3,1.1c0.1,2.3-0.5,6.4-2,12.3l-0.4,0.8c-0.1,0.1-0.5,0.6-1.1,2
		c-0.6,1.3-1.4,2.9-2.3,4.6c-0.9,1.8-1.6,3.3-2.4,4.4c-0.8,1.3-1.6,2.3-2.8,3.3c-1.4,1.3-2.1,1.6-2.6,1.6h-0.1c-0.3,0-1.1,0-1.3-2.1
		c-0.1-1.6,0.1-3.8,0.9-6.4c0.6-2.6,1.4-4.8,1.9-6.4c0.5-1.5,1.4-3.8,2.6-7c1.1-3,2.1-4.9,2.9-5.6c0.1-0.1,0.1-0.1,0.1-0.3
		c0-0.1-0.1-0.3-0.4-0.3l-4.8,0.3c-2.4,0.1-4.4,2.1-6,5.8c-1.4,3.1-2.5,6.4-3.5,9.8c0,0.1,0,0.1-0.1,0.1c-4,10-7.5,15.3-10.5,15.4
		H63c-0.3,0-1,0-1.1-1.8c-0.1-1.4,0.1-3.3,0.6-5.8c0.1-1,0.5-2.1,0.9-3.5c0.4-1.4,0.6-2.5,0.9-3.3s0.5-1.9,0.9-3.1s0.8-2.4,1-3.4
		c0.4-1.1,0.5-2.3,0.4-3.3c-0.3-3-1.9-4.5-5-4.3c-1.6,0.1-3.3,0.6-4.8,1.4c-1,0.5-2,1.1-2.9,1.8c-0.1,0.1-0.4,0.1-0.5,0
		c-0.1-0.1-0.1-0.4,0-0.5c5.1-7.4,8.8-14.2,11-19.8c1.3-3.3,1.8-5.8,1.6-7.8c0.4-3.1-1.1-4.5-3.9-4.4c-2.6,0.1-5.1,1.5-7.4,4
		c-2.4,2.6-4.3,5.8-5.6,9c-1.9,4.1-3.4,8.5-4.8,12.9c-1.5,5-3.4,12-5.5,20.8C36.7,55.5,35.2,62,33.9,66v0.1c0,0.1,0.1,0.3,0.4,0.3
		l7.8-0.5l0.1-0.3c0.4-1.8,0.8-3.4,1.1-4.8c0.4-1.4,0.8-3.3,1.1-5.4c0.4-2.1,0.9-4,1.4-5.5c0.5-1.5,1.1-3.3,1.9-5.4
		c0.8-2,1.8-3.9,3-5.5c1.1-1.5,2.4-2.6,4-3.6c1.8-1.1,2.6-1.4,3-1.4h0.1c0.5,0,1,0.1,1.1,1.4c0.1,0.8-0.3,2.3-0.8,4.3
		c-2.8,8.5-4,15.2-3.6,19.7c0.3,4.1,2,6,5.4,5.9c3.8-0.3,7.8-4.4,12.3-12.5c0.1-0.1,0.3-0.3,0.4-0.3c0.1,0.1,0.3,0.3,0.3,0.4
		c0,0.9,0,1.8,0.1,2.6c0.3,4.4,1.9,6.6,4.8,6.6h0.4c1.8-0.1,3.6-1.1,5.6-3.1c0.9-0.9,1.8-1.8,2.5-2.8c1.1-1.6,1.8-2.4,3.3-5
		c-0.1,0.9-1.8,6.4-1.6,7.8c0.1,0,8.1-0.5,8.1-0.5l0.1-0.3c0.1-0.3,0.4-1.8,0.5-3c0.4-1.8,0.6-3.5,1-5.1c0.4-1.6,0.9-3.6,1.4-6
		c0.5-2.1,1.3-4.3,2-6.4c0.8-1.9,1.6-3.6,2.6-5.5c0.8-1.6,1.9-3,3.3-4.1c1.1-0.9,2.4-1.5,3.9-1.6c1.3-0.1,1.8,0.4,1.9,1.4
		c0,0.5,0,1-0.3,1.5c-3.3,11.4-4.6,19-4.4,22.8c0.3,3.9,2,5.8,5.3,5.5c1.8-0.1,3.6-1.1,5.6-3.1c2-2,3.8-4.3,5.1-6.6
		c0.5-0.8,1-1.6,1.4-2.5c0.1-0.1,0.3-0.3,0.4-0.3c0.1,0.1,0.3,0.3,0.3,0.4c0,0.5,0,0.9,0,1.3c0.1,2.4,0.6,4.3,1.6,5.5
		s2.3,1.9,3.8,1.8c1.3-0.1,2.5-0.4,3.6-0.8c1-0.4,2.4-1.5,4.1-3.4c1.4-1.5,2.6-3,3.6-4.8c0.1-0.1,0.3-0.1,0.4-0.1
		c0.1,0.1,0.3,0.3,0.3,0.4l-2.8,9c0,0.1-0.1,0.1-0.3,0.3c-49,7.1-7.3,35.3,7.8,1.1c0-0.1,0.1-0.1,0.1-0.3c0.3-0.1,0.5-0.3,0.8-0.4
		c4.1-2,6.3-3.5,11.3-8.1C165.1,42.7,165.5,41,167.7,37.2z M50.6,31.3c-0.1,0.1-0.3,0.1-0.4,0.1c-0.1-0.1-0.3-0.3-0.3-0.4
		c2-6.9,4-13.2,6.1-18.7c3.1-7.9,5.1-9.8,6.3-9.8h0.1c0.1,0,0.6,0,0.8,1.3c0.1,1.1-0.5,3.5-1.8,7C59.6,16.3,55.9,23.2,50.6,31.3z
		 M124,66.9c-1.5-3.4,13.7-7.3,14.9-7.5C136.1,65.8,125.8,70.7,124,66.9z"/>
	<path class="st0" d="M86.4,20.3c1.9-0.1,4.3-0.8,4.9-3.6c0.3-1.3-0.5-2.8-1-3.1c-0.5-0.4-1.1-0.6-2-0.5s-1.9,0.6-2.9,1.5
		c-1.3,1.3-1.3,3-0.9,4.1C84.9,19.7,85.7,20.3,86.4,20.3z"/>
	<path class="st0" d="M8.1,67.9c1.3,0.1,20.3,4.3,25.6-14.4c2-7.9-7.5-18.4-8.3-19.4l0,0c-11.7-11.9-5.6-23.7,2.4-22.3
		c5.8,1,2.8,9.4,5.9,10.3h0.1c1.9,0.1,5.5-4.3,6-5.8c2-5.9-9.9-9.4-13.5-9.3c-7.3,0.5-12.2,4.4-15,10.9C5.9,30,15.9,38,22,46.2
		c4.6,6.3,4.4,11.8-1.3,17.2c-6.3,5.9-12.5-2.5-13.4-8.1c-0.8-5.3-1.6-8.6-6-2C-2.6,59.5,3,67.1,8.1,67.9z"/>
</g>
</svg>
